<?xml version="1.0" encoding="UTF-8"?>
<svg version="1.1" xmlns="http://www.w3.org/2000/svg" width="115" height="90">
<path d="M0 0 C2.375 0.875 2.375 0.875 4.375 3.875 C4.6534729 5.98210144 4.6534729 5.98210144 4.69384766 8.43823242 C4.72393921 9.83857727 4.72393921 9.83857727 4.75463867 11.26721191 C4.77167847 12.73402405 4.77167847 12.73402405 4.7890625 14.23046875 C4.80670654 15.13172485 4.82435059 16.03298096 4.8425293 16.96154785 C4.90559763 20.32835037 4.95178343 23.69545204 5 27.0625 C5.12375 34.590625 5.2475 42.11875 5.375 49.875 C26.165 50.205 46.955 50.535 68.375 50.875 C68.29590155 35.91643141 68.29590155 35.91643141 68.19482422 20.95800781 C68.18898246 19.08138252 68.18388615 17.20475469 68.1796875 15.328125 C68.16945557 14.35536621 68.15922363 13.38260742 68.14868164 12.38037109 C68.14831909 10.98020752 68.14831909 10.98020752 68.14794922 9.55175781 C68.143508 8.7434552 68.13906677 7.93515259 68.13449097 7.10235596 C68.4060031 4.58788008 69.01126527 2.9986645 70.375 0.875 C72.75 -0.0625 72.75 -0.0625 75.375 -0.125 C77.50494385 1.08015442 77.50494385 1.08015442 79.375 2.875 C79.89398193 5.02006531 79.89398193 5.02006531 79.92089844 7.5300293 C79.94061707 8.47077805 79.96033569 9.41152679 79.98065186 10.38078308 C79.98188049 11.39336685 79.98310913 12.40595062 79.984375 13.44921875 C80.00091125 14.48818802 80.01744751 15.52715729 80.03448486 16.59761047 C80.08310857 19.91929958 80.10436814 23.24053042 80.125 26.5625 C80.15314758 28.81317428 80.18307329 31.06382707 80.21484375 33.31445312 C80.2888711 38.83455182 80.34042926 44.35452087 80.375 49.875 C81.2967804 49.94038719 81.2967804 49.94038719 82.23718262 50.00709534 C83.04514282 50.07766647 83.85310303 50.14823761 84.68554688 50.22094727 C85.48569214 50.28516373 86.2858374 50.34938019 87.11022949 50.4155426 C90.11890737 51.02591761 91.79972219 52.46678761 93.54296875 54.97607422 C95.17834086 58.70844637 95.01141447 62.42877491 94.875 66.4375 C94.87886719 67.69336914 94.87886719 67.69336914 94.8828125 68.97460938 C94.80764915 73.72117496 94.48087193 77.05858661 91.375 80.875 C88.47407498 82.80895001 87.47825263 83.17631941 84.1875 83.5 C82.929375 83.62375 81.67125 83.7475 80.375 83.875 C80.045 85.855 79.715 87.835 79.375 89.875 C77.72925434 89.90188151 76.08338587 89.92134123 74.4375 89.9375 C73.52097656 89.94910156 72.60445313 89.96070312 71.66015625 89.97265625 C69.375 89.875 69.375 89.875 68.375 88.875 C68.375 86.895 68.375 84.915 68.375 82.875 C47.255 82.875 26.135 82.875 4.375 82.875 C4.375 85.185 4.375 87.495 4.375 89.875 C0.745 89.875 -2.885 89.875 -6.625 89.875 C-6.625 87.565 -6.625 85.255 -6.625 82.875 C-7.21667969 82.93300781 -7.80835938 82.99101563 -8.41796875 83.05078125 C-9.60326172 83.11845703 -9.60326172 83.11845703 -10.8125 83.1875 C-11.58980469 83.24550781 -12.36710938 83.30351563 -13.16796875 83.36328125 C-17.08394928 82.58506572 -18.33042637 81.12264261 -20.625 77.875 C-21.35499507 74.1919626 -21.32350001 70.6186005 -21.25 66.875 C-21.26933594 65.89015625 -21.28867187 64.9053125 -21.30859375 63.890625 C-21.27770031 59.31839604 -21.12245514 56.63738336 -18.5859375 52.75 C-14.7775523 50.33835766 -12.08143608 50.32218365 -7.625 49.875 C-7.62135437 49.29284225 -7.61770874 48.71068451 -7.61395264 48.11088562 C-7.57219109 42.05992494 -7.50289099 36.00972729 -7.41748047 29.95922852 C-7.3892283 27.70019151 -7.36803501 25.44105486 -7.35400391 23.18188477 C-7.33263348 19.93714224 -7.28601268 16.69360308 -7.234375 13.44921875 C-7.23314636 12.43663498 -7.23191772 11.42405121 -7.23065186 10.38078308 C-7.21093323 9.44003433 -7.1912146 8.49928558 -7.17089844 7.5300293 C-7.16201599 6.70174118 -7.15313354 5.87345306 -7.14398193 5.02006531 C-6.625 2.875 -6.625 2.875 -4.75494385 1.07624817 C-2.625 -0.125 -2.625 -0.125 0 0 Z M-1.625 3.875 C-2.82550456 4.85577719 -2.82550456 4.85577719 -2.74525452 6.70362854 C-2.74303391 7.50082809 -2.74081329 8.29802765 -2.73852539 9.11938477 C-2.73844986 10.02024307 -2.73837433 10.92110138 -2.73829651 11.84925842 C-2.73313522 12.82841721 -2.72797394 13.80757599 -2.72265625 14.81640625 C-2.7212413 15.81381332 -2.71982635 16.8112204 -2.71836853 17.83885193 C-2.71275114 21.03843124 -2.70019571 24.23794169 -2.6875 27.4375 C-2.68248724 29.60091045 -2.67792395 31.76432199 -2.67382812 33.92773438 C-2.66277607 39.24351325 -2.64602104 44.55925171 -2.625 49.875 C-1.635 50.205 -0.645 50.535 0.375 50.875 C0.375 35.695 0.375 20.515 0.375 4.875 C-0.285 4.545 -0.945 4.215 -1.625 3.875 Z M73.375 3.875 C72.17449544 4.85577719 72.17449544 4.85577719 72.25474548 6.70362854 C72.25696609 7.50082809 72.25918671 8.29802765 72.26147461 9.11938477 C72.26155014 10.02024307 72.26162567 10.92110138 72.26170349 11.84925842 C72.26686478 12.82841721 72.27202606 13.80757599 72.27734375 14.81640625 C72.2787587 15.81381332 72.28017365 16.8112204 72.28163147 17.83885193 C72.28724886 21.03843124 72.29980429 24.23794169 72.3125 27.4375 C72.31751276 29.60091045 72.32207605 31.76432199 72.32617188 33.92773438 C72.33722393 39.24351325 72.35397896 44.55925171 72.375 49.875 C73.695 49.875 75.015 49.875 76.375 49.875 C76.40029951 43.64535385 76.41784549 37.41572088 76.42993164 31.18603516 C76.43496872 29.06558741 76.44179859 26.94514315 76.45043945 24.82470703 C76.46253234 21.78156678 76.46823447 18.73847234 76.47265625 15.6953125 C76.47781754 14.74318878 76.48297882 13.79106506 76.48829651 12.81008911 C76.48840981 11.48894608 76.48840981 11.48894608 76.48852539 10.14111328 C76.49185631 8.97529221 76.49185631 8.97529221 76.49525452 7.78591919 C76.49430686 5.78848428 76.49430686 5.78848428 75.375 3.875 C74.715 3.875 74.055 3.875 73.375 3.875 Z M-16.625 56.875 C-18.11857569 59.86215138 -17.85003435 62.91387936 -17.875 66.1875 C-17.90078125 67.50363281 -17.9265625 68.81976563 -17.953125 70.17578125 C-17.59189635 74.24820429 -17.35457563 75.85157589 -14.625 78.875 C-11.42096584 79.64427343 -8.24960665 79.53661176 -4.96875 79.49023438 C-3.9782666 79.49578339 -2.9877832 79.5013324 -1.96728516 79.50704956 C1.31396528 79.5188816 4.59384569 79.49453379 7.875 79.46875 C10.15038998 79.46703981 12.42578194 79.46710364 14.70117188 79.46887207 C19.47284765 79.4672168 24.24405476 79.4484801 29.015625 79.41699219 C35.1394523 79.37731428 41.26266524 79.37294568 47.38659668 79.38045502 C52.085995 79.38352103 56.78525457 79.37141727 61.48461914 79.35432434 C63.74291107 79.3472809 66.00121873 79.34417143 68.25952148 79.34501648 C71.4128881 79.3432236 74.56551148 79.32188496 77.71875 79.29492188 C78.65702637 79.29785248 79.59530273 79.30078308 80.56201172 79.30380249 C81.42004395 79.2924527 82.27807617 79.28110291 83.16210938 79.26940918 C84.28039124 79.26381611 84.28039124 79.26381611 85.42126465 79.25811005 C87.91936235 78.76825541 88.81688483 77.84982082 90.375 75.875 C90.81697219 73.90297999 90.81697219 73.90297999 90.73828125 71.75 C90.73763672 70.96109375 90.73699219 70.1721875 90.73632812 69.359375 C90.72021484 68.53953125 90.70410156 67.7196875 90.6875 66.875 C90.69233398 65.64523438 90.69233398 65.64523438 90.69726562 64.390625 C90.70563842 59.34415805 90.70563842 59.34415805 88.375 54.875 C86.49875037 54.29557591 86.49875037 54.29557591 84.33099365 54.1975708 C83.52272881 54.13327126 82.71446396 54.06897171 81.88170624 54.00272369 C77.94484728 53.80212972 74.02085938 53.71930237 70.07910156 53.71386719 C69.19824387 53.70890228 68.31738617 53.70393738 67.40983582 53.69882202 C64.528424 53.68434769 61.64706702 53.67742703 58.765625 53.671875 C57.77615623 53.66904762 56.78668747 53.66622025 55.7672348 53.66330719 C50.5419234 53.6483827 45.31663918 53.63910782 40.09130859 53.63476562 C34.69880545 53.62925797 29.30655187 53.60516273 23.91412735 53.57679367 C19.7585781 53.55818217 15.60308955 53.55296272 11.44750214 53.55142975 C9.45878469 53.54840471 7.47006827 53.5403812 5.48139191 53.52724457 C2.70517218 53.51019819 -0.07042893 53.51205964 -2.84667969 53.51855469 C-4.07488182 53.50473251 -4.07488182 53.50473251 -5.32789612 53.4906311 C-9.91253758 53.52424628 -12.89614931 53.90740217 -16.625 56.875 Z M-2.625 82.875 C-2.625 84.195 -2.625 85.515 -2.625 86.875 C-1.635 86.875 -0.645 86.875 0.375 86.875 C0.375 85.555 0.375 84.235 0.375 82.875 C-0.615 82.875 -1.605 82.875 -2.625 82.875 Z M72.375 82.875 C72.705 84.195 73.035 85.515 73.375 86.875 C74.365 86.545 75.355 86.215 76.375 85.875 C76.045 84.885 75.715 83.895 75.375 82.875 C74.385 82.875 73.395 82.875 72.375 82.875 Z " fill="#C728F9" transform="translate(20.625,0.125)"/>
<path d="M0 0 C2 2 2 2 2 6 C-2.29021013 5.21378502 -5.10227956 2.97768943 -8.5859375 0.47265625 C-15.88634004 -3.98082556 -24.31569292 -4.03114717 -32.5625 -2.53515625 C-37.62500849 -1.0498022 -41.29799544 1.45505779 -45.2734375 4.890625 C-45.84320313 5.25671875 -46.41296875 5.6228125 -47 6 C-47.99 5.67 -48.98 5.34 -50 5 C-47.85504205 -0.45989296 -43.62359819 -2.82604127 -38.5 -5.1875 C-24.96922325 -10.85309618 -11.87863111 -7.91908741 0 0 Z " fill="#C828F9" transform="translate(81,12)"/>
<path d="M0 0 C2.3125 0.75 2.3125 0.75 3.3125 1.75 C3.40561889 3.25418739 3.42996028 4.76271356 3.42602539 6.26977539 C3.42594986 7.23069595 3.42587433 8.19161652 3.42579651 9.18165588 C3.42063522 10.226436 3.41547394 11.27121613 3.41015625 12.34765625 C3.4087413 13.41165146 3.40732635 14.47564667 3.40586853 15.57188416 C3.40025064 18.98545083 3.38769511 22.398953 3.375 25.8125 C3.36998731 28.12044176 3.365424 30.42838455 3.36132812 32.73632812 C3.3502754 38.40757426 3.33351987 44.07878253 3.3125 49.75 C2.3225 50.245 2.3225 50.245 1.3125 50.75 C1.3125 35.57 1.3125 20.39 1.3125 4.75 C-0.3375 4.75 -1.9875 4.75 -3.6875 4.75 C-3.6875 19.93 -3.6875 35.11 -3.6875 50.75 C-4.3475 50.42 -5.0075 50.09 -5.6875 49.75 C-5.93162593 43.11215167 -6.14412084 36.47383519 -6.33447266 29.83422852 C-6.40300173 27.57488013 -6.47881561 25.31574062 -6.56201172 23.05688477 C-6.68023254 19.81293403 -6.77237538 16.56913805 -6.859375 13.32421875 C-6.90189392 12.31163498 -6.94441284 11.29905121 -6.98822021 10.25578308 C-7.00854309 9.31503433 -7.02886597 8.37428558 -7.04980469 7.4050293 C-7.07645203 6.57674118 -7.10309937 5.74845306 -7.1305542 4.89506531 C-6.6875 2.75 -6.6875 2.75 -4.83282471 0.94343567 C-2.6875 -0.25 -2.6875 -0.25 0 0 Z " fill="#CF29FE" transform="translate(20.6875,0.25)"/>
<path d="M0 0 C2 2 2 2 2 6 C-1.97627886 5.21894522 -4.67846326 3.3879075 -8 1.15625 C-12.8875389 -1.66935842 -18.5086217 -1.59496632 -24 -1 C-28.22071856 0.32594891 -31.85993149 2.12994771 -35.375 4.8125 C-35.91125 5.204375 -36.4475 5.59625 -37 6 C-37.99 5.67 -38.98 5.34 -40 5 C-37.9391372 0.10805295 -34.60907643 -1.67085818 -30 -4 C-19.52655507 -7.84026314 -9.29579691 -5.94412511 0 0 Z " fill="#C826F8" transform="translate(76,17)"/>
<path d="M0 0 C1.9375 1 1.9375 1 3 3 C3.45982357 5.75894141 3.51068558 8.24574069 3 11 C0.81246717 13.6923481 -0.58423955 13.93936827 -4 14.4375 C-7 14 -7 14 -9.375 12.375 C-11.48706506 9.28813568 -11.61195145 7.6717087 -11 4 C-8.05323917 -0.47907646 -5.13567732 -0.65363166 0 0 Z M-6 4 C-6.33 5.65 -6.66 7.3 -7 9 C-4.525 9.495 -4.525 9.495 -2 10 C-1.34 8.68 -0.68 7.36 0 6 C-0.66 5.34 -1.32 4.68 -2 4 C-3.32 4 -4.64 4 -6 4 Z " fill="#C828F9" transform="translate(61,33)"/>
<path d="M0 0 C3.1875 2.3125 3.1875 2.3125 4.1875 5.0625 C4.1875 5.805 4.1875 6.5475 4.1875 7.3125 C0.3161412 6.77481128 -1.78434125 5.735027 -4.8125 3.3125 C-11.23238389 1.1725387 -15.85802868 2.44553233 -21.8125 5.3125 C-23.4767135 5.98526716 -25.14236582 6.65456835 -26.8125 7.3125 C-26.75 5.0625 -26.75 5.0625 -25.8125 2.3125 C-18.93225409 -3.6077116 -8.12880077 -3.59486677 0 0 Z " fill="#C927FA" transform="translate(68.8125,20.6875)"/>
<path d="M0 0 C1.875 1.6875 1.875 1.6875 3 4 C2.75925978 7.37036311 2.41201979 8.58798021 0 11 C-3.625 10.625 -3.625 10.625 -7 10 C-8.33359073 3.57451737 -8.33359073 3.57451737 -6.875 1.0625 C-4.33639987 -0.37604008 -2.87213496 -0.50262362 0 0 Z M-4 4 C-4 4.99 -4 5.98 -4 7 C-3.01 6.67 -2.02 6.34 -1 6 C-1.33 5.34 -1.66 4.68 -2 4 C-2.66 4 -3.32 4 -4 4 Z " fill="#C926F8" transform="translate(76,65)"/>
<path d="M0 0 C3.625 0.375 3.625 0.375 7 1 C8.33359073 7.42548263 8.33359073 7.42548263 6.875 9.9375 C4.33639987 11.37604008 2.87213496 11.50262362 0 11 C-1.875 9.3125 -1.875 9.3125 -3 7 C-2.75925978 3.62963689 -2.41201979 2.41201979 0 0 Z M1 4 C1.33 4.99 1.66 5.98 2 7 C2.66 7 3.32 7 4 7 C4 6.01 4 5.02 4 4 C3.01 4 2.02 4 1 4 Z " fill="#C826F8" transform="translate(85,65)"/>
<path d="M0 0 C2.9375 0.9375 2.9375 0.9375 4.4375 3.25 C4.9375 5.9375 4.9375 5.9375 4.4375 8.1875 C2.9375 9.9375 2.9375 9.9375 0 10.8125 C-3.0625 10.9375 -3.0625 10.9375 -6.0625 8.9375 C-6.4375 5.4375 -6.4375 5.4375 -6.0625 1.9375 C-3.0625 -0.0625 -3.0625 -0.0625 0 0 Z M-2.0625 3.9375 C-2.0625 4.9275 -2.0625 5.9175 -2.0625 6.9375 C-1.0725 6.6075 -0.0825 6.2775 0.9375 5.9375 C0.6075 5.2775 0.2775 4.6175 -0.0625 3.9375 C-0.7225 3.9375 -1.3825 3.9375 -2.0625 3.9375 Z " fill="#C826F9" transform="translate(103.0625,65.0625)"/>
<path d="M0 0 C2.40823788 1.09034392 3.95504966 2.27793655 6 4 C5.67 4.99 5.34 5.98 5 7 C3.9790625 6.5359375 3.9790625 6.5359375 2.9375 6.0625 C-0.46724295 4.83099723 -3.37837071 4.19401585 -7 4 C-9.72981832 5.35400645 -9.72981832 5.35400645 -12 7 C-12.99 7 -13.98 7 -15 7 C-14.75 4.625 -14.75 4.625 -14 2 C-9.68866073 -0.82267055 -4.96808809 -0.6717855 0 0 Z " fill="#C826F9" transform="translate(62,26)"/>
<path d="M0 0 C0.66 0 1.32 0 2 0 C2 6.27 2 12.54 2 19 C1.01 18.67 0.02 18.34 -1 18 C-1.02698422 15.56242587 -1.04683099 13.12515085 -1.0625 10.6875 C-1.07087891 9.99720703 -1.07925781 9.30691406 -1.08789062 8.59570312 C-1.10307906 5.4516975 -1.00193327 3.00579981 0 0 Z " fill="#CA1CFC" transform="translate(113,57)"/>
<path d="M0 0 C1.32 0.33 2.64 0.66 4 1 C4 4.3 4 7.6 4 11 C2.68 11 1.36 11 0 11 C0 7.37 0 3.74 0 0 Z " fill="#C826F7" transform="translate(50,65)"/>
<path d="M0 0 C1.32 0 2.64 0 4 0 C4 3.3 4 6.6 4 10 C2.68 10.33 1.36 10.66 0 11 C0 7.37 0 3.74 0 0 Z " fill="#C62AF8" transform="translate(14,65)"/>
<path d="M0 0 C0.99 0 1.98 0 3 0 C3 3.63 3 7.26 3 11 C1.68 10.67 0.36 10.34 -1 10 C-1.02689216 8.52093108 -1.04634621 7.04172517 -1.0625 5.5625 C-1.07410156 4.73878906 -1.08570312 3.91507812 -1.09765625 3.06640625 C-1 1 -1 1 0 0 Z " fill="#C92BF8" transform="translate(22,65)"/>
<path d="M0 0 C0.99 0 1.98 0 3 0 C3 3.63 3 7.26 3 11 C2.01 11 1.02 11 0 11 C-1.62651522 7.74696956 -1.11453156 4.60774398 -1 1 C-0.67 0.67 -0.34 0.34 0 0 Z " fill="#C823F7" transform="translate(29,65)"/>
<path d="M0 0 C0.99 0 1.98 0 3 0 C3 3.63 3 7.26 3 11 C2.01 11 1.02 11 0 11 C-1.49297212 8.01405576 -1.11755228 5.29146376 -1 2 C-0.67 1.34 -0.34 0.68 0 0 Z " fill="#C922F8" transform="translate(36,65)"/>
<path d="M0 0 C0.99 0 1.98 0 3 0 C4.28571429 7.42857143 4.28571429 7.42857143 3 11 C2.01 11 1.02 11 0 11 C0 7.37 0 3.74 0 0 Z " fill="#C725F8" transform="translate(7,65)"/>
<path d="M0 0 C2.625 0.5625 2.625 0.5625 5 2 C5.8125 4.625 5.8125 4.625 6 7 C1.68607774 6.5206753 -0.16569547 5.2542015 -3 2 C-2.01 1.34 -1.02 0.68 0 0 Z " fill="#C221F1" transform="translate(67,21)"/>
<path d="M0 0 C0.99 0 1.98 0 3 0 C3 3.63 3 7.26 3 11 C2.01 11 1.02 11 0 11 C0 7.37 0 3.74 0 0 Z " fill="#C828FA" transform="translate(43,65)"/>
<path d="M0 0 C3 1.75 3 1.75 6 4 C6 5.32 6 6.64 6 8 C3.03824877 7.38722388 1.61941217 6.74627478 -1 5 C-0.67 3.35 -0.34 1.7 0 0 Z " fill="#BD1EEA" transform="translate(72,15)"/>
<path d="M0 0 C1.11375 0.556875 1.11375 0.556875 2.25 1.125 C2.25 2.115 2.25 3.105 2.25 4.125 C1.92 3.795 1.59 3.465 1.25 3.125 C0.59 3.785 -0.07 4.445 -0.75 5.125 C-0.75 4.465 -0.75 3.805 -0.75 3.125 C-1.74 3.455 -2.73 3.785 -3.75 4.125 C-3.75 3.465 -3.75 2.805 -3.75 2.125 C-4.74 1.795 -5.73 1.465 -6.75 1.125 C-4.02098495 -0.69434337 -3.21400584 -1.02263822 0 0 Z " fill="#C420EE" transform="translate(96.75,0.875)"/>
<path d="M0 0 C2.97 0.495 2.97 0.495 6 1 C1.25 5 1.25 5 -1 5 C-0.67 3.35 -0.34 1.7 0 0 Z " fill="#C727EB" transform="translate(43,23)"/>
</svg>
